# Blender 3.4.0
# www.blender.org
mtllib nails_1.mtl
o nails_1
v 0.014276 0.006627 0.013500
v 0.013321 0.013032 0.020150
v 0.014750 0.006627 0.020046
v -0.038762 -0.000449 0.023989
v 0.016487 0.020678 0.016632
v 0.016614 0.017820 0.009533
v 0.017943 0.010920 0.006500
v 0.019695 0.004019 0.009310
v 0.017636 0.017820 0.023638
v 0.019388 0.010920 0.026448
v 0.020844 0.001161 0.016316
v 0.020717 0.004019 0.023415
v 0.013076 0.009828 0.006853
v 0.015977 0.000069 0.016669
v 0.014828 0.002927 0.009663
v 0.011621 0.019586 0.016985
v 0.012838 0.013059 0.013576
v 0.011748 0.016728 0.009886
v 0.014522 0.009828 0.026801
v 0.015850 0.002927 0.023768
v 0.012770 0.016728 0.023991
v -0.039237 -0.000449 0.017444
v -0.040192 0.005956 0.024093
v -0.040674 0.005984 0.017519
v -0.049449 0.000576 0.021466
v -0.040337 0.006627 -0.051460
v -0.033907 0.013032 -0.053405
v -0.034605 0.006627 -0.054656
v -0.008416 -0.000449 -0.007824
v -0.038433 0.020678 -0.054788
v -0.044921 0.017820 -0.051903
v -0.048231 0.010920 -0.051825
v -0.046425 0.004019 -0.054600
v -0.032569 0.017820 -0.058790
v -0.030763 0.010920 -0.061565
v -0.040560 0.001161 -0.058603
v -0.034073 0.004019 -0.061487
v -0.045854 0.009828 -0.047563
v -0.038184 0.000069 -0.054341
v -0.044048 0.002927 -0.050339
v -0.036057 0.019586 -0.050526
v -0.039661 0.013059 -0.050189
v -0.042544 0.016728 -0.047641
v -0.028386 0.009828 -0.057304
v -0.031697 0.002927 -0.057226
v -0.030193 0.016728 -0.054528
v -0.014148 -0.000449 -0.004628
v -0.007718 0.005956 -0.006572
v -0.013471 0.005984 -0.003356
v -0.006186 0.000576 0.002928
v 0.038864 0.006627 -0.050337
v 0.042491 0.013032 -0.044682
v 0.043504 0.006627 -0.045696
v 0.005609 -0.000449 -0.007708
v 0.042585 0.020678 -0.049415
v 0.038037 0.017820 -0.054867
v 0.037058 0.010920 -0.058030
v 0.040221 0.004019 -0.057051
v 0.048037 0.017820 -0.044867
v 0.051200 0.010920 -0.043888
v 0.045673 0.001161 -0.052503
v 0.050221 0.004019 -0.047051
v 0.033608 0.009828 -0.054580
v 0.042223 0.000069 -0.049053
v 0.036771 0.002927 -0.053601
v 0.039135 0.019586 -0.045964
v 0.037826 0.013059 -0.049339
v 0.034587 0.016728 -0.051417
v 0.047750 0.009828 -0.040438
v 0.046771 0.002927 -0.043601
v 0.044587 0.016728 -0.041417
v 0.000969 -0.000449 -0.012348
v 0.004596 0.005956 -0.006694
v -0.000069 0.005984 -0.011351
v -0.004124 0.000576 -0.002625
v -0.006144 0.006627 0.065359
v -0.007710 0.013032 0.058826
v -0.009000 0.006627 0.059450
v 0.039284 -0.000449 0.036043
v -0.009355 0.020678 0.063264
v -0.006854 0.017820 0.069909
v -0.006970 0.010920 0.073218
v -0.009635 0.004019 0.071253
v -0.013008 0.017820 0.057175
v -0.015672 0.010920 0.055210
v -0.013288 0.001161 0.065164
v -0.015788 0.004019 0.058519
v -0.002577 0.009828 0.071095
v -0.008894 0.000069 0.063041
v -0.005242 0.002927 0.069130
v -0.004962 0.019586 0.061141
v -0.004836 0.013059 0.064758
v -0.002461 0.016728 0.067786
v -0.011279 0.009828 0.053087
v -0.011395 0.002927 0.056396
v -0.008614 0.016728 0.055052
v 0.042139 -0.000449 0.041953
v 0.040574 0.005956 0.035420
v 0.043448 0.005984 0.041352
v 0.050148 0.000576 0.034446
v -0.059125 0.006627 0.034635
v -0.065094 0.013032 0.031552
v -0.065465 0.006627 0.032936
v -0.051641 -0.000449 -0.018910
v -0.062809 0.020678 0.035697
v -0.056144 0.017820 0.038145
v -0.053715 0.010920 0.040395
v -0.056944 0.004019 0.041128
v -0.069805 0.017820 0.034485
v -0.073034 0.010920 0.035218
v -0.063939 0.001161 0.039916
v -0.070604 0.004019 0.037468
v -0.052452 0.009828 0.035682
v -0.062677 0.000069 0.035203
v -0.055681 0.002927 0.036415
v -0.061546 0.019586 0.030984
v -0.058725 0.013059 0.033252
v -0.054882 0.016728 0.033432
v -0.071771 0.009828 0.030505
v -0.069341 0.002927 0.032755
v -0.068542 0.016728 0.029772
v -0.045301 -0.000449 -0.017211
v -0.051270 0.005956 -0.020295
v -0.044901 0.005984 -0.018595
v -0.045753 0.000576 -0.028179
v 0.050390 0.006627 -0.012203
v 0.057106 0.013032 -0.012058
v 0.056830 0.006627 -0.013464
v 0.067211 -0.000449 0.039180
v 0.053231 0.020678 -0.014776
v 0.046169 0.017820 -0.014044
v 0.042998 0.010920 -0.014997
v 0.045575 0.004019 -0.017075
v 0.060047 0.017820 -0.016763
v 0.062625 0.010920 -0.018842
v 0.052391 0.001161 -0.019063
v 0.059454 0.004019 -0.019794
v 0.043936 0.009828 -0.010209
v 0.053329 0.000069 -0.014274
v 0.046513 0.002927 -0.012287
v 0.054169 0.019586 -0.009988
v 0.050638 0.013059 -0.010785
v 0.047107 0.016728 -0.009256
v 0.063563 0.009828 -0.014054
v 0.060392 0.002927 -0.015006
v 0.060985 0.016728 -0.011975
v 0.060770 -0.000449 0.040441
v 0.067486 0.005956 0.040586
v 0.061019 0.005984 0.041860
v 0.065997 0.000576 0.050093
vn -0.9733 -0.2184 0.0705
vn -0.6695 -0.1376 -0.7299
vn 0.0447 -0.7225 -0.6900
vn 0.1453 -0.7213 0.6772
vn -0.0232 -0.7100 0.7038
vn -0.1246 -0.7119 -0.6912
vn -0.4443 -0.8953 0.0322
vn -0.7826 0.6200 0.0567
vn -0.5573 -0.1376 0.8188
vn -0.1430 0.6809 -0.7183
vn -0.3671 0.6541 -0.6614
vn -0.0360 0.6803 0.7320
vn -0.2658 0.6528 0.7094
vn -0.5335 -0.6734 -0.5118
vn -0.7727 0.3981 -0.4944
vn -0.4542 -0.6734 0.5833
vn -0.6934 0.3981 0.6007
vn -0.2178 0.9759 0.0158
vn -0.2051 0.6900 -0.6941
vn -0.0723 -0.0000 -0.9974
vn 0.2178 -0.9759 -0.0158
vn 0.1029 -0.6900 -0.7164
vn 0.0723 -0.0000 0.9974
vn 0.2051 -0.6900 0.6941
vn -0.1029 0.6900 0.7164
vn -0.9733 -0.2186 0.0707
vn 0.4753 -0.2184 0.8523
vn 0.4752 -0.2184 0.8523
vn -0.3786 -0.1376 0.9153
vn -0.6442 -0.7225 0.2511
vn 0.5524 -0.7213 -0.4179
vn 0.6477 -0.7100 -0.2764
vn -0.5738 -0.7119 0.4050
vn 0.2170 -0.8953 0.3891
vn 0.3821 0.6200 0.6853
vn 0.9776 -0.1376 0.1591
vn -0.5906 0.6809 0.4331
vn -0.4443 0.6541 0.6122
vn 0.6787 0.6803 -0.2767
vn 0.7552 0.6528 -0.0589
vn -0.2383 -0.6734 0.6998
vn -0.1216 0.3981 0.9093
vn 0.7206 -0.6734 0.1651
vn 0.8374 0.3981 0.3745
vn 0.1064 0.9759 0.1907
vn -0.5424 0.6900 0.4792
vn -0.8734 -0.0000 0.4870
vn -0.1064 -0.9759 -0.1907
vn -0.6928 -0.6900 0.2095
vn 0.8734 -0.0000 -0.4870
vn 0.5424 -0.6900 -0.4792
vn 0.6928 0.6900 -0.2095
vn 0.4754 -0.2186 0.8522
vn -0.8786 0.2184 0.4246
vn -0.6900 -0.2184 0.6900
vn -0.9839 -0.1376 -0.1141
vn -0.4176 -0.7225 -0.5511
vn 0.5529 -0.7213 0.4172
vn 0.4428 -0.7100 0.5475
vn -0.5464 -0.7119 -0.4413
vn -0.3150 -0.8953 0.3150
vn -0.5548 0.6200 0.5548
vn 0.1141 -0.1376 0.9839
vn -0.5780 0.6809 -0.4497
vn -0.7103 0.6541 -0.2601
vn 0.4516 0.6803 0.5772
vn 0.2630 0.6528 0.7104
vn -0.7383 -0.6734 -0.0381
vn -0.9079 0.3981 0.1315
vn 0.0381 -0.6734 0.7383
vn -0.1315 0.3981 0.9079
vn -0.1544 0.9759 0.1544
vn -0.6092 0.6900 -0.3908
vn -0.7071 -0.0000 -0.7071
vn 0.1544 -0.9759 -0.1544
vn -0.3908 -0.6900 -0.6092
vn 0.7071 -0.0000 0.7071
vn 0.6092 -0.6900 0.3908
vn 0.3908 0.6900 0.6092
vn -0.6899 -0.2186 0.6901
vn 0.8786 -0.2184 -0.4246
vn 0.8916 -0.1376 0.4314
vn 0.2130 -0.7225 0.6578
vn -0.3849 -0.7213 -0.5759
vn -0.2380 -0.7100 -0.6627
vn 0.3708 -0.7119 0.5965
vn 0.4011 -0.8953 -0.1938
vn 0.7064 0.6200 -0.3414
vn 0.2160 -0.1376 -0.9667
vn 0.3979 0.6809 0.6149
vn 0.5852 0.6541 0.4794
vn -0.2366 0.6803 -0.6937
vn -0.0147 0.6528 -0.7574
vn 0.6847 -0.6734 0.2788
vn 0.9006 0.3981 0.1745
vn 0.2070 -0.6734 -0.7097
vn 0.4229 0.3981 -0.8141
vn 0.1966 0.9759 -0.0950
vn 0.4467 0.6900 0.5695
vn 0.4351 -0.0000 0.9004
vn -0.1966 -0.9759 0.0950
vn 0.1686 -0.6900 0.7039
vn -0.4351 -0.0000 -0.9004
vn -0.4467 -0.6900 -0.5695
vn -0.1686 0.6900 -0.7039
vn 0.8785 -0.2186 -0.4248
vn 0.2526 -0.2184 -0.9426
vn 0.9091 -0.1376 -0.3931
vn 0.6372 -0.7225 0.2685
vn -0.6874 -0.7213 -0.0848
vn -0.6573 -0.7100 -0.2528
vn 0.6938 -0.7119 0.1090
vn 0.1153 -0.8953 -0.4303
vn 0.2031 0.6200 -0.7579
vn -0.5907 -0.1376 -0.7950
vn 0.7254 0.6809 0.1005
vn 0.7452 0.6541 -0.1299
vn -0.6797 0.6803 -0.2741
vn -0.5830 0.6528 -0.4837
vn 0.6584 -0.6734 -0.3362
vn 0.7205 0.3981 -0.5678
vn -0.4021 -0.6734 -0.6204
vn -0.3401 0.3981 -0.8520
vn 0.0565 0.9759 -0.2110
vn 0.7230 0.6900 0.0338
vn 0.9659 -0.0000 0.2588
vn -0.0565 -0.9759 0.2110
vn 0.6430 -0.6900 0.3322
vn -0.9659 -0.0000 -0.2588
vn -0.7230 -0.6900 -0.0338
vn -0.6430 0.6900 -0.3322
vn 0.2524 -0.2186 -0.9426
vn 0.1876 -0.2184 0.9577
vn -0.6437 -0.1376 0.7528
vn -0.6903 -0.7225 0.0390
vn 0.6547 -0.7213 -0.2260
vn 0.7015 -0.7100 -0.0620
vn -0.6710 -0.7119 0.2072
vn 0.0856 -0.8953 0.4372
vn 0.1508 0.6200 0.7700
vn 0.8801 -0.1376 0.4543
vn -0.6957 0.6809 0.2287
vn -0.6122 0.6541 0.4443
vn 0.7310 0.6803 -0.0527
vn 0.7363 0.6528 0.1781
vn -0.4436 -0.6734 0.5915
vn -0.3975 0.3981 0.8268
vn 0.6339 -0.6734 0.3804
vn 0.6800 0.3981 0.6157
vn 0.0420 0.9759 0.2143
vn -0.6642 0.6900 0.2875
vn -0.9813 -0.0000 0.1923
vn -0.0420 -0.9759 -0.2143
vn -0.7236 -0.6900 -0.0156
vn 0.9813 -0.0000 -0.1922
vn 0.6642 -0.6900 -0.2875
vn 0.7236 0.6900 0.0156
vn 0.1878 -0.2186 0.9576
vn 0.6900 0.2184 -0.6900
vn 0.9733 0.2184 -0.0705
vn -0.4752 0.2184 -0.8523
vn -0.4753 0.2184 -0.8523
vn -0.1876 0.2184 -0.9577
vn -0.2526 0.2184 0.9426
vt 0.534100 0.515348
vt 0.534100 0.498025
vt 0.498025 0.515348
vt 0.532189 0.510834
vt 0.532189 0.528647
vt 0.510834 0.528647
vt 0.535048 0.528440
vt 0.535048 0.498025
vt 0.498025 0.528440
vt 0.428023 0.473873
vt 0.428023 0.536326
vt 0.538522 0.521611
vt 0.526127 0.521611
vt 0.538776 0.507414
vt 0.538776 0.520411
vt 0.520411 0.507414
vt 0.541433 0.506610
vt 0.506610 0.501348
vt 0.544937 0.506967
vt 0.544937 0.492809
vt 0.492809 0.506967
vt 0.540820 0.535624
vt 0.540820 0.520411
vt 0.520411 0.535624
vt 0.544324 0.506610
vt 0.506610 0.541243
vt 0.547235 0.520980
vt 0.487093 0.520980
vt 0.546981 0.492809
vt 0.546981 0.535177
vt 0.492809 0.535177
vt 0.504426 0.502053
vt 0.531700 0.504426
vt 0.484909 0.521685
vt 0.537502 0.521685
vt 0.490625 0.507672
vt 0.535204 0.507672
vt 0.535204 0.490625
vt 0.523943 0.522316
vt 0.528789 0.522316
vt 0.531224 0.510889
vt 0.531224 0.515499
vt 0.510889 0.515499
vt 0.518227 0.508119
vt 0.529043 0.508119
vt 0.529043 0.518227
vt 0.504426 0.541948
vt 0.534591 0.504426
vt 0.490625 0.535883
vt 0.537248 0.490625
vt 0.537248 0.535883
vt 0.518227 0.536329
vt 0.531087 0.536329
vt 0.531087 0.518227
vt 0.427074 0.523234
vt 0.427074 0.473873
vt 0.425164 0.536533
vt 0.425164 0.486682
vt 0.424199 0.523386
vt 0.424199 0.486738
vt 0.406649 0.531280
vt 0.406649 0.475923
vt 0.424874 0.385427
vt 0.498025 0.385427
vt 0.424874 0.498025
vt 0.510834 0.381538
vt 0.437734 0.381538
vt 0.437734 0.510834
vt 0.436338 0.379035
vt 0.498025 0.379035
vt 0.436338 0.498025
vt 0.473873 0.472700
vt 0.488716 0.472700
vt 0.428681 0.378772
vt 0.428681 0.526127
vt 0.415706 0.384542
vt 0.520411 0.384542
vt 0.415706 0.520411
vt 0.506610 0.384697
vt 0.409086 0.506610
vt 0.412698 0.379147
vt 0.492809 0.379147
vt 0.412698 0.492809
vt 0.440410 0.370767
vt 0.520411 0.370767
vt 0.440410 0.520411
vt 0.506610 0.365217
vt 0.444022 0.506610
vt 0.424427 0.371142
vt 0.424427 0.487093
vt 0.492809 0.365372
vt 0.437402 0.365372
vt 0.437402 0.492809
vt 0.413839 0.504426
vt 0.504426 0.393220
vt 0.429179 0.484909
vt 0.429179 0.379665
vt 0.417451 0.490625
vt 0.417451 0.387670
vt 0.490625 0.387670
vt 0.433434 0.523943
vt 0.433434 0.387295
vt 0.510889 0.387969
vt 0.426226 0.387969
vt 0.426226 0.510889
vt 0.420459 0.518227
vt 0.420459 0.393065
vt 0.518227 0.393065
vt 0.448774 0.504426
vt 0.504426 0.373740
vt 0.442154 0.490625
vt 0.490625 0.373895
vt 0.442154 0.373895
vt 0.445162 0.518227
vt 0.445162 0.379291
vt 0.518227 0.379291
vt 0.473873 0.479092
vt 0.477252 0.479092
vt 0.477252 0.473873
vt 0.490112 0.475203
vt 0.486682 0.475203
vt 0.486738 0.481634
vt 0.478605 0.481634
vt 0.478605 0.486738
vt 0.475924 0.494204
vt 0.493176 0.494204
vt 0.493176 0.475924
vt 0.583275 0.387674
vt 0.583275 0.498025
vt 0.498025 0.387674
vt 0.510834 0.398982
vt 0.590529 0.398982
vt 0.590529 0.510834
vt 0.592556 0.396955
vt 0.592556 0.498025
vt 0.498025 0.396955
vt 0.473873 0.472932
vt 0.516766 0.473873
vt 0.516766 0.472932
vt 0.590717 0.389518
vt 0.590717 0.526127
vt 0.581622 0.378614
vt 0.520411 0.378614
vt 0.581622 0.520411
vt 0.506610 0.372288
vt 0.579663 0.506610
vt 0.585989 0.374246
vt 0.585989 0.492809
vt 0.601622 0.398614
vt 0.601622 0.520411
vt 0.506610 0.400572
vt 0.607948 0.506610
vt 0.596894 0.383341
vt 0.596894 0.487093
vt 0.492809 0.394246
vt 0.605989 0.394246
vt 0.605989 0.492809
vt 0.504426 0.379188
vt 0.572763 0.504426
vt 0.589994 0.484909
vt 0.484909 0.390242
vt 0.589994 0.390242
vt 0.490625 0.381146
vt 0.579089 0.381146
vt 0.579089 0.490625
vt 0.523943 0.396419
vt 0.583817 0.523943
vt 0.583817 0.396419
vt 0.581199 0.510889
vt 0.581199 0.389669
vt 0.510889 0.389669
vt 0.574721 0.385514
vt 0.518227 0.385514
vt 0.504426 0.407472
vt 0.601047 0.504426
vt 0.490625 0.401146
vt 0.599089 0.401146
vt 0.594721 0.405514
vt 0.594721 0.518227
vt 0.507485 0.463651
vt 0.473873 0.463651
vt 0.486682 0.474959
vt 0.514739 0.474959
vt 0.514739 0.486682
vt 0.505409 0.465646
vt 0.486738 0.465646
vt 0.497299 0.475923
vt 0.497299 0.483098
vt 0.475923 0.483098
vt 0.493259 0.619065
vt 0.493259 0.498025
vt 0.498025 0.619065
vt 0.490128 0.510834
vt 0.490128 0.605999
vt 0.510834 0.605999
vt 0.487547 0.607247
vt 0.487547 0.498025
vt 0.498025 0.607247
vt 0.584115 0.473873
vt 0.584115 0.560434
vt 0.486838 0.614875
vt 0.526127 0.614875
vt 0.491839 0.628165
vt 0.491839 0.520411
vt 0.520411 0.628165
vt 0.491607 0.506610
vt 0.506610 0.634783
vt 0.486277 0.630853
vt 0.486277 0.492809
vt 0.492809 0.630853
vt 0.479532 0.602698
vt 0.479532 0.520411
vt 0.520411 0.602698
vt 0.506610 0.598768
vt 0.474203 0.506610
vt 0.478972 0.618676
vt 0.487093 0.618676
vt 0.492809 0.605386
vt 0.473971 0.492809
vt 0.473971 0.605386
vt 0.504426 0.630537
vt 0.500393 0.504426
vt 0.484909 0.614430
vt 0.487759 0.614430
vt 0.490625 0.626606
vt 0.495064 0.626606
vt 0.495064 0.490625
vt 0.523943 0.610629
vt 0.495624 0.610629
vt 0.495876 0.510889
vt 0.495876 0.617863
vt 0.510889 0.617863
vt 0.518227 0.623919
vt 0.500626 0.623919
vt 0.500626 0.518227
vt 0.504426 0.594522
vt 0.482989 0.504426
vt 0.490625 0.601140
vt 0.482757 0.490625
vt 0.482757 0.601140
vt 0.518227 0.598452
vt 0.488319 0.598452
vt 0.488319 0.518227
vt 0.589826 0.572252
vt 0.589826 0.473873
vt 0.586696 0.559187
vt 0.586696 0.486682
vt 0.592443 0.571051
vt 0.592443 0.486738
vt 0.605843 0.557239
vt 0.605843 0.475923
vt 0.387296 0.557617
vt 0.498025 0.557617
vt 0.387296 0.498025
vt 0.510834 0.551451
vt 0.375360 0.551451
vt 0.375360 0.510834
vt 0.374618 0.554220
vt 0.498025 0.554220
vt 0.374618 0.498025
vt 0.473873 0.450527
vt 0.402266 0.450527
vt 0.379929 0.559741
vt 0.379929 0.526127
vt 0.393259 0.564637
vt 0.520411 0.564637
vt 0.393259 0.520411
vt 0.506610 0.569137
vt 0.398117 0.506610
vt 0.391660 0.570604
vt 0.492809 0.570604
vt 0.391660 0.492809
vt 0.365938 0.557317
vt 0.520411 0.557317
vt 0.365938 0.520411
vt 0.506610 0.558784
vt 0.359480 0.506610
vt 0.377668 0.568179
vt 0.377668 0.487093
vt 0.492809 0.563283
vt 0.364339 0.563283
vt 0.364339 0.492809
vt 0.400643 0.504426
vt 0.504426 0.559710
vt 0.380194 0.484909
vt 0.380194 0.558753
vt 0.394186 0.490625
vt 0.394186 0.561178
vt 0.490625 0.561178
vt 0.382455 0.523943
vt 0.382455 0.550315
vt 0.510889 0.554851
vt 0.388097 0.554851
vt 0.388097 0.510889
vt 0.395784 0.518227
vt 0.395784 0.555211
vt 0.518227 0.555211
vt 0.362006 0.504426
vt 0.504426 0.549358
vt 0.366865 0.490625
vt 0.490625 0.553857
vt 0.366865 0.553857
vt 0.368464 0.518227
vt 0.368464 0.547890
vt 0.518227 0.547890
vt 0.414945 0.453924
vt 0.473873 0.453924
vt 0.403008 0.447758
vt 0.486682 0.447758
vt 0.415745 0.451158
vt 0.486738 0.451158
vt 0.414042 0.431990
vt 0.475923 0.431990
vt 0.606327 0.463942
vt 0.498025 0.463942
vt 0.606327 0.498025
vt 0.510834 0.464232
vt 0.619759 0.464232
vt 0.619759 0.510834
vt 0.619208 0.461418
vt 0.498025 0.461418
vt 0.619208 0.498025
vt 0.473873 0.566707
vt 0.639969 0.566707
vt 0.612010 0.458795
vt 0.612010 0.526127
vt 0.597885 0.460258
vt 0.520411 0.460258
vt 0.597885 0.520411
vt 0.506610 0.458354
vt 0.591543 0.506610
vt 0.596698 0.454197
vt 0.492809 0.454197
vt 0.596698 0.492809
vt 0.625642 0.454821
vt 0.520411 0.454821
vt 0.625642 0.520411
vt 0.506610 0.450664
vt 0.630797 0.506610
vt 0.610330 0.450222
vt 0.610330 0.487093
vt 0.492809 0.448759
vt 0.624455 0.448759
vt 0.624455 0.492809
vt 0.593419 0.504426
vt 0.504426 0.467930
vt 0.612206 0.484909
vt 0.612206 0.459799
vt 0.598574 0.490625
vt 0.598574 0.463773
vt 0.490625 0.463773
vt 0.613886 0.523943
vt 0.613886 0.468372
vt 0.510889 0.466778
vt 0.606824 0.466778
vt 0.606824 0.510889
vt 0.599762 0.518227
vt 0.599762 0.469835
vt 0.518227 0.469835
vt 0.632673 0.504426
vt 0.504426 0.460240
vt 0.626331 0.490625
vt 0.490625 0.458336
vt 0.626331 0.458336
vt 0.627518 0.518227
vt 0.627518 0.464397
vt 0.518227 0.464397
vt 0.627087 0.569230
vt 0.473873 0.569230
vt 0.640520 0.569520
vt 0.486682 0.569520
vt 0.627585 0.572066
vt 0.486738 0.572066
vt 0.637542 0.588534
vt 0.475924 0.588534
s 1
usemtl metal_1
f 1/3/1 17/43/1 13/32/2
f 1/1/3 3/7/4 4/11/5 22/55/6
f 3/9/1 1/3/1 14/34/7
f 17/43/1 2/6/1 16/39/8
f 2/6/1 3/9/1 19/47/9
f 17/41/10 1/2/3 22/56/6 24/60/11
f 3/8/4 2/4/12 23/58/13 4/10/5
f 2/5/12 17/42/10 24/59/11 23/57/13
f 13/32/2 15/36/14 1/3/1
f 15/36/14 14/34/7 1/3/1
f 16/39/8 18/44/15 17/43/1
f 18/44/15 13/32/2 17/43/1
f 14/34/7 20/49/16 3/9/1
f 20/49/16 19/47/9 3/9/1
f 19/47/9 21/52/17 2/6/1
f 21/52/17 16/39/8 2/6/1
f 16/40/8 5/12/18 6/14/19 18/45/15
f 18/46/15 6/15/19 7/17/20 13/33/2
f 11/27/21 14/35/7 15/37/14 8/19/22
f 8/20/22 15/38/14 13/33/2 7/17/20
f 10/25/23 19/48/9 20/50/16 12/29/24
f 12/30/24 20/51/16 14/35/7 11/27/21
f 5/12/18 16/40/8 21/53/17 9/22/25
f 9/23/25 21/54/17 19/48/9 10/25/23
f 23/57/13 24/59/11 25/61/26
f 4/10/5 23/58/13 25/62/26
f 22/55/6 4/11/5 25/61/26
f 24/60/11 22/56/6 25/62/26
f 26/65/27 42/105/28 38/94/29
f 26/63/30 28/69/31 29/73/32 47/118/33
f 28/71/28 26/65/27 39/96/34
f 42/105/28 27/68/27 41/101/35
f 27/68/27 28/71/28 44/109/36
f 42/103/37 26/64/30 47/117/33 49/122/38
f 28/70/31 27/66/39 48/121/40 29/72/32
f 27/67/39 42/104/37 49/123/38 48/120/40
f 38/94/29 40/98/41 26/65/27
f 40/98/41 39/96/34 26/65/27
f 41/101/35 43/106/42 42/105/28
f 43/106/42 38/94/29 42/105/28
f 39/96/34 45/111/43 28/71/28
f 45/111/43 44/109/36 28/71/28
f 44/109/36 46/114/44 27/68/27
f 46/114/44 41/101/35 27/68/27
f 41/102/35 30/74/45 31/76/46 43/107/42
f 43/108/42 31/77/46 32/79/47 38/95/29
f 36/89/48 39/97/34 40/99/41 33/81/49
f 33/82/49 40/100/41 38/95/29 32/79/47
f 35/87/50 44/110/36 45/112/43 37/91/51
f 37/92/51 45/113/43 39/97/34 36/89/48
f 30/74/45 41/102/35 46/115/44 34/84/52
f 34/85/52 46/116/44 44/110/36 35/87/50
f 48/120/40 49/123/38 50/126/53
f 29/72/32 48/121/40 50/125/53
f 47/118/33 29/73/32 50/126/53
f 49/124/38 47/119/33 50/127/53
f 87/218/54 86/217/54 84/213/54 85/214/54
f 51/129/55 67/169/55 63/159/56
f 51/128/57 53/134/58 54/139/59 72/180/60
f 53/135/55 51/129/55 64/160/61
f 67/169/55 52/133/55 66/167/62
f 52/133/55 53/135/55 69/175/63
f 67/171/64 51/130/57 72/181/60 74/186/65
f 53/136/58 52/131/66 73/182/67 54/137/59
f 52/132/66 67/170/64 74/185/65 73/183/67
f 63/159/56 65/165/68 51/129/55
f 65/163/68 64/161/61 51/130/55
f 66/166/62 68/173/69 67/171/55
f 68/173/69 63/158/56 67/171/55
f 64/161/61 70/176/70 53/136/55
f 70/176/70 69/174/63 53/136/55
f 69/175/63 71/179/71 52/133/55
f 71/179/71 66/167/62 52/133/55
f 66/168/62 55/140/72 56/142/73 68/172/69
f 68/173/69 56/143/73 57/145/74 63/158/56
f 61/153/75 64/162/61 65/164/68 58/147/76
f 58/148/76 65/165/68 63/159/56 57/146/74
f 60/151/77 69/174/63 70/176/70 62/155/78
f 62/156/78 70/177/70 64/162/61 61/153/75
f 55/140/72 66/168/62 71/178/71 59/149/79
f 59/150/79 71/179/71 69/175/63 60/152/77
f 73/183/67 74/185/65 75/188/80
f 54/138/59 73/184/67 75/187/80
f 72/180/60 54/139/59 75/188/80
f 74/186/65 72/181/60 75/189/80
f 76/192/81 92/232/81 88/221/82
f 76/190/83 78/196/84 79/200/85 97/244/86
f 78/198/81 76/192/81 89/223/87
f 92/232/81 77/195/81 91/228/88
f 77/195/81 78/198/81 94/236/89
f 92/230/90 76/191/83 97/245/86 99/249/91
f 78/197/84 77/193/92 98/247/93 79/199/85
f 77/194/92 92/231/90 99/248/91 98/246/93
f 88/221/82 90/225/94 76/192/81
f 90/225/94 89/223/87 76/192/81
f 91/228/88 93/233/95 92/232/81
f 93/233/95 88/221/82 92/232/81
f 89/223/87 95/238/96 78/198/81
f 95/238/96 94/236/89 78/198/81
f 94/236/89 96/241/97 77/195/81
f 96/241/97 91/228/88 77/195/81
f 91/229/88 80/201/98 81/203/99 93/234/95
f 93/235/95 81/204/99 82/206/100 88/222/82
f 86/216/101 89/224/87 90/226/94 83/208/102
f 83/209/102 90/227/94 88/222/82 82/206/100
f 85/215/103 94/237/89 95/239/96 87/219/104
f 87/220/104 95/240/96 89/224/87 86/216/101
f 80/201/98 91/229/88 96/242/97 84/211/105
f 84/212/105 96/243/97 94/237/89 85/215/103
f 98/246/93 99/248/91 100/250/106
f 79/199/85 98/247/93 100/251/106
f 97/244/86 79/200/85 100/250/106
f 99/249/91 97/245/86 100/251/106
f 101/254/107 117/294/107 113/283/108
f 101/252/109 103/258/110 104/262/111 122/306/112
f 103/260/107 101/254/107 114/285/113
f 117/294/107 102/257/107 116/290/114
f 102/257/107 103/260/107 119/298/115
f 117/292/116 101/253/109 122/307/112 124/311/117
f 103/259/110 102/255/118 123/309/119 104/261/111
f 102/256/118 117/293/116 124/310/117 123/308/119
f 113/283/108 115/287/120 101/254/107
f 115/287/120 114/285/113 101/254/107
f 116/290/114 118/295/121 117/294/107
f 118/295/121 113/283/108 117/294/107
f 114/285/113 120/300/122 103/260/107
f 120/300/122 119/298/115 103/260/107
f 119/298/115 121/303/123 102/257/107
f 121/303/123 116/290/114 102/257/107
f 116/291/114 105/263/124 106/265/125 118/296/121
f 118/297/121 106/266/125 107/268/126 113/284/108
f 111/278/127 114/286/113 115/288/120 108/270/128
f 108/271/128 115/289/120 113/284/108 107/268/126
f 110/276/129 119/299/115 120/301/122 112/280/130
f 112/281/130 120/302/122 114/286/113 111/278/127
f 105/263/124 116/291/114 121/304/123 109/273/131
f 109/274/131 121/305/123 119/299/115 110/276/129
f 123/308/119 124/310/117 125/312/132
f 104/261/111 123/309/119 125/313/132
f 122/306/112 104/262/111 125/312/132
f 124/311/117 122/307/112 125/313/132
f 126/316/133 142/356/133 138/345/134
f 126/314/135 128/320/136 129/324/137 147/368/138
f 128/322/133 126/316/133 139/347/139
f 142/356/133 127/319/133 141/352/140
f 127/319/133 128/322/133 144/360/141
f 142/354/142 126/315/135 147/369/138 149/373/143
f 128/321/136 127/317/144 148/371/145 129/323/137
f 127/318/144 142/355/142 149/372/143 148/370/145
f 138/345/134 140/349/146 126/316/133
f 140/349/146 139/347/139 126/316/133
f 141/352/140 143/357/147 142/356/133
f 143/357/147 138/345/134 142/356/133
f 139/347/139 145/362/148 128/322/133
f 145/362/148 144/360/141 128/322/133
f 144/360/141 146/365/149 127/319/133
f 146/365/149 141/352/140 127/319/133
f 141/353/140 130/325/150 131/327/151 143/358/147
f 143/359/147 131/328/151 132/330/152 138/346/134
f 136/340/153 139/348/139 140/350/146 133/332/154
f 133/333/154 140/351/146 138/346/134 132/330/152
f 135/338/155 144/361/141 145/363/148 137/342/156
f 137/343/156 145/364/148 139/348/139 136/340/153
f 130/325/150 141/353/140 146/366/149 134/335/157
f 134/336/157 146/367/149 144/361/141 135/338/155
f 148/370/145 149/372/143 150/374/158
f 129/323/137 148/371/145 150/375/158
f 147/368/138 129/324/137 150/374/158
f 149/373/143 147/369/138 150/375/158
f 58/148/159 57/146/159 59/150/159 61/154/159
f 56/144/159 55/141/159 59/150/159 57/146/159
f 8/21/160 7/18/160 6/16/160
f 6/16/160 5/13/160 9/24/160
f 34/86/161 35/88/161 37/93/161
f 37/93/161 36/90/162 33/83/162
f 33/83/162 32/80/161 31/78/162
f 31/78/162 30/75/162 34/86/161
f 130/326/163 134/337/163 136/341/163 133/334/163
f 131/329/163 130/326/163 133/334/163 132/331/163
f 137/344/163 136/341/163 134/337/163 135/339/163
f 109/275/164 110/277/164 112/282/164
f 112/282/164 111/279/164 108/272/164
f 108/272/164 107/269/164 106/267/164
f 106/267/164 105/264/164 109/275/164
f 37/93/161 33/83/162 31/78/162 34/86/161
f 62/157/159 61/154/159 59/150/159 60/152/159
f 81/205/54 80/202/54 83/210/54 82/207/54
f 8/21/160 6/16/160 9/24/160 10/26/160
f 12/31/160 11/28/160 8/21/160 10/26/160
f 80/202/54 84/213/54 86/217/54 83/210/54
f 112/282/164 108/272/164 106/267/164 109/275/164
